<?xml version="1.0" encoding="UTF-8" standalone="no"?>
<!DOCTYPE svg PUBLIC "-//W3C//DTD SVG 1.1//EN"
 "http://www.w3.org/Graphics/SVG/1.1/DTD/svg11.dtd">
<!-- Generated by graphviz version 2.43.0 (0)
 -->
<!-- Title: %3 Pages: 1 -->
<svg width="720pt" height="293pt"
 viewBox="0.00 0.00 720.00 292.98" xmlns="http://www.w3.org/2000/svg" xmlns:xlink="http://www.w3.org/1999/xlink">
<g id="graph0" class="graph" transform="scale(0.76 0.76) rotate(0) translate(4 382)">
<title>%3</title>
<polygon fill="white" stroke="transparent" points="-4,4 -4,-382 944.6,-382 944.6,4 -4,4"/>
<!-- A -->
<g id="node1" class="node">
<title>A</title>
<polygon fill="lightcoral" stroke="black" points="204.15,-378 88.15,-378 88.15,-340 204.15,-340 204.15,-378"/>
<text text-anchor="middle" x="146.15" y="-362.8" font-family="Times,serif" font-size="14.00">遇到需求/问题</text>
<text text-anchor="middle" x="146.15" y="-347.8" font-family="Times,serif" font-size="14.00">需要写功能代码</text>
</g>
<!-- B -->
<g id="node2" class="node">
<title>B</title>
<polygon fill="lightyellow" stroke="black" points="146.15,-303 -0.15,-285 146.15,-267 292.44,-285 146.15,-303"/>
<text text-anchor="middle" x="146.15" y="-281.3" font-family="Times,serif" font-size="14.00">是否已有可靠包可用？</text>
</g>
<!-- A&#45;&gt;B -->
<g id="edge1" class="edge">
<title>A&#45;&gt;B</title>
<path fill="none" stroke="black" d="M146.15,-339.83C146.15,-331.89 146.15,-322.41 146.15,-313.63"/>
<polygon fill="black" stroke="black" points="149.65,-313.42 146.15,-303.42 142.65,-313.42 149.65,-313.42"/>
</g>
<!-- C1 -->
<g id="node3" class="node">
<title>C1</title>
<polygon fill="lightgreen" stroke="black" points="238.65,-216 15.65,-216 15.65,-178 238.65,-178 238.65,-216"/>
<text text-anchor="middle" x="127.15" y="-200.8" font-family="Times,serif" font-size="14.00">使用第三方包</text>
<text text-anchor="middle" x="127.15" y="-185.8" font-family="Times,serif" font-size="14.00">（通过Star数/维护活跃度判断）</text>
</g>
<!-- B&#45;&gt;C1 -->
<g id="edge2" class="edge">
<title>B&#45;&gt;C1</title>
<path fill="none" stroke="black" d="M142.48,-267.42C139.89,-255.67 136.34,-239.63 133.32,-225.93"/>
<polygon fill="black" stroke="black" points="136.7,-225.02 131.13,-216.02 129.87,-226.53 136.7,-225.02"/>
<text text-anchor="middle" x="146.65" y="-237.8" font-family="Times,serif" font-size="14.00">是</text>
</g>
<!-- C2 -->
<g id="node4" class="node">
<title>C2</title>
<polygon fill="lightyellow" stroke="black" points="390.15,-215 257.09,-197 390.15,-179 523.2,-197 390.15,-215"/>
<text text-anchor="middle" x="390.15" y="-193.3" font-family="Times,serif" font-size="14.00">搜索现成代码片段？</text>
</g>
<!-- B&#45;&gt;C2 -->
<g id="edge3" class="edge">
<title>B&#45;&gt;C2</title>
<path fill="none" stroke="black" d="M182.15,-271.31C225.59,-256 298.63,-230.26 345.58,-213.71"/>
<polygon fill="black" stroke="black" points="346.91,-216.95 355.18,-210.32 344.59,-210.35 346.91,-216.95"/>
<text text-anchor="middle" x="290.65" y="-237.8" font-family="Times,serif" font-size="14.00">否</text>
</g>
<!-- D1 -->
<g id="node5" class="node">
<title>D1</title>
<polygon fill="lightblue" stroke="black" points="342.15,-127 240.15,-127 240.15,-89 342.15,-89 342.15,-127"/>
<text text-anchor="middle" x="291.15" y="-111.8" font-family="Times,serif" font-size="14.00">复制小段代码</text>
<text text-anchor="middle" x="291.15" y="-96.8" font-family="Times,serif" font-size="14.00">根据场景微调</text>
</g>
<!-- C2&#45;&gt;D1 -->
<g id="edge4" class="edge">
<title>C2&#45;&gt;D1</title>
<path fill="none" stroke="black" d="M373.35,-181.24C358.62,-168.29 336.88,-149.19 319.46,-133.89"/>
<polygon fill="black" stroke="black" points="321.63,-131.13 311.81,-127.16 317.01,-136.39 321.63,-131.13"/>
<text text-anchor="middle" x="354.65" y="-148.8" font-family="Times,serif" font-size="14.00">是</text>
</g>
<!-- D2 -->
<g id="node6" class="node">
<title>D2</title>
<polygon fill="lightyellow" stroke="black" points="650.15,-126 359.74,-108 650.15,-90 940.55,-108 650.15,-126"/>
<text text-anchor="middle" x="650.15" y="-104.3" font-family="Times,serif" font-size="14.00">用AI工具（ChatGPT、Claude等）生成代码？</text>
</g>
<!-- C2&#45;&gt;D2 -->
<g id="edge5" class="edge">
<title>C2&#45;&gt;D2</title>
<path fill="none" stroke="black" d="M426.57,-183.81C471.08,-168.92 546.72,-143.61 597.54,-126.6"/>
<polygon fill="black" stroke="black" points="598.67,-129.91 607.05,-123.42 596.45,-123.28 598.67,-129.91"/>
<text text-anchor="middle" x="543.65" y="-148.8" font-family="Times,serif" font-size="14.00">否</text>
</g>
<!-- E1 -->
<g id="node7" class="node">
<title>E1</title>
<polygon fill="white" stroke="black" points="637.65,-38 478.65,-38 478.65,0 637.65,0 637.65,-38"/>
<text text-anchor="middle" x="558.15" y="-22.8" font-family="Times,serif" font-size="14.00">生成后理解逻辑</text>
<text text-anchor="middle" x="558.15" y="-7.8" font-family="Times,serif" font-size="14.00">仅在熟悉领域直接使用</text>
</g>
<!-- D2&#45;&gt;E1 -->
<g id="edge6" class="edge">
<title>D2&#45;&gt;E1</title>
<path fill="none" stroke="black" d="M633.27,-91.04C619.72,-78.23 600.44,-59.99 584.8,-45.21"/>
<polygon fill="black" stroke="black" points="587.13,-42.59 577.46,-38.26 582.32,-47.68 587.13,-42.59"/>
<text text-anchor="middle" x="617.65" y="-59.8" font-family="Times,serif" font-size="14.00">是</text>
</g>
<!-- E2 -->
<g id="node8" class="node">
<title>E2</title>
<polygon fill="gray" stroke="black" points="828.65,-38 655.65,-38 655.65,0 828.65,0 828.65,-38"/>
<text text-anchor="middle" x="742.15" y="-22.8" font-family="Times,serif" font-size="14.00">考虑自己实现</text>
<text text-anchor="middle" x="742.15" y="-7.8" font-family="Times,serif" font-size="14.00">作为技术投资或安全需求</text>
</g>
<!-- D2&#45;&gt;E2 -->
<g id="edge7" class="edge">
<title>D2&#45;&gt;E2</title>
<path fill="none" stroke="black" d="M667.02,-91.04C680.57,-78.23 699.85,-59.99 715.49,-45.21"/>
<polygon fill="black" stroke="black" points="717.97,-47.68 722.83,-38.26 713.16,-42.59 717.97,-47.68"/>
<text text-anchor="middle" x="709.65" y="-59.8" font-family="Times,serif" font-size="14.00">否</text>
</g>
</g>
</svg>
