<?xml version="1.0" encoding="UTF-8" standalone="no"?>
<!DOCTYPE svg PUBLIC "-//W3C//DTD SVG 1.1//EN"
 "http://www.w3.org/Graphics/SVG/1.1/DTD/svg11.dtd">
<!-- Generated by graphviz version 2.43.0 (0)
 -->
<!-- Title: %3 Pages: 1 -->
<svg width="534pt" height="464pt"
 viewBox="0.00 0.00 534.25 464.00" xmlns="http://www.w3.org/2000/svg" xmlns:xlink="http://www.w3.org/1999/xlink">
<g id="graph0" class="graph" transform="scale(1 1) rotate(0) translate(4 460)">
<title>%3</title>
<polygon fill="white" stroke="transparent" points="-4,4 -4,-460 530.25,-460 530.25,4 -4,4"/>
<!-- A -->
<g id="node1" class="node">
<title>A</title>
<polygon fill="lightcoral" stroke="black" points="231.51,-456 86.51,-456 86.51,-420 231.51,-420 231.51,-456"/>
<text text-anchor="middle" x="159.01" y="-434.3" font-family="Times,serif" font-size="14.00">程序报错或结果异常</text>
</g>
<!-- B -->
<g id="node2" class="node">
<title>B</title>
<polygon fill="lightyellow" stroke="black" points="159.01,-383 -0.01,-365 159.01,-347 318.04,-365 159.01,-383"/>
<text text-anchor="middle" x="159.01" y="-361.3" font-family="Times,serif" font-size="14.00">是否有示例代码可参考？</text>
</g>
<!-- A&#45;&gt;B -->
<g id="edge1" class="edge">
<title>A&#45;&gt;B</title>
<path fill="none" stroke="black" d="M159.01,-419.81C159.01,-411.79 159.01,-402.05 159.01,-393.07"/>
<polygon fill="black" stroke="black" points="162.51,-393.03 159.01,-383.03 155.51,-393.03 162.51,-393.03"/>
</g>
<!-- C1 -->
<g id="node3" class="node">
<title>C1</title>
<polygon fill="lightblue" stroke="black" points="212.51,-242 67.51,-242 67.51,-204 212.51,-204 212.51,-242"/>
<text text-anchor="middle" x="140.01" y="-226.8" font-family="Times,serif" font-size="14.00">从示例代码运行开始</text>
<text text-anchor="middle" x="140.01" y="-211.8" font-family="Times,serif" font-size="14.00">验证基础逻辑</text>
</g>
<!-- B&#45;&gt;C1 -->
<g id="edge2" class="edge">
<title>B&#45;&gt;C1</title>
<path fill="none" stroke="black" d="M156.72,-347.11C153.54,-323.64 147.73,-280.84 143.87,-252.4"/>
<polygon fill="black" stroke="black" points="147.31,-251.72 142.49,-242.28 140.37,-252.66 147.31,-251.72"/>
<text text-anchor="middle" x="162.51" y="-317.8" font-family="Times,serif" font-size="14.00">是</text>
</g>
<!-- C2 -->
<g id="node4" class="node">
<title>C2</title>
<polygon fill="lightyellow" stroke="black" points="347.01,-296 167.54,-278 347.01,-260 526.49,-278 347.01,-296"/>
<text text-anchor="middle" x="347.01" y="-274.3" font-family="Times,serif" font-size="14.00">是否使用版本控制（Git）？</text>
</g>
<!-- B&#45;&gt;C2 -->
<g id="edge3" class="edge">
<title>B&#45;&gt;C2</title>
<path fill="none" stroke="black" d="M189.22,-350.34C221,-335.97 271.21,-313.27 306.43,-297.35"/>
<polygon fill="black" stroke="black" points="308.28,-300.36 315.95,-293.05 305.39,-293.98 308.28,-300.36"/>
<text text-anchor="middle" x="271.51" y="-317.8" font-family="Times,serif" font-size="14.00">否</text>
</g>
<!-- E -->
<g id="node7" class="node">
<title>E</title>
<polygon fill="white" stroke="black" points="310.01,-111 184.01,-111 184.01,-73 310.01,-73 310.01,-111"/>
<text text-anchor="middle" x="247.01" y="-95.8" font-family="Times,serif" font-size="14.00">使用 Stub/Mock</text>
<text text-anchor="middle" x="247.01" y="-80.8" font-family="Times,serif" font-size="14.00">拆分子模块验证</text>
</g>
<!-- C1&#45;&gt;E -->
<g id="edge6" class="edge">
<title>C1&#45;&gt;E</title>
<path fill="none" stroke="black" d="M140.91,-203.97C142.53,-187.91 146.95,-164.48 159.01,-148 168.44,-135.12 181.88,-124.57 195.43,-116.27"/>
<polygon fill="black" stroke="black" points="197.4,-119.18 204.31,-111.15 193.9,-113.12 197.4,-119.18"/>
</g>
<!-- D1 -->
<g id="node5" class="node">
<title>D1</title>
<polygon fill="lightgreen" stroke="black" points="326.51,-186 167.51,-186 167.51,-148 326.51,-148 326.51,-186"/>
<text text-anchor="middle" x="247.01" y="-170.8" font-family="Times,serif" font-size="14.00">回退至正常运行的提交</text>
<text text-anchor="middle" x="247.01" y="-155.8" font-family="Times,serif" font-size="14.00">进行 diff 比对</text>
</g>
<!-- C2&#45;&gt;D1 -->
<g id="edge4" class="edge">
<title>C2&#45;&gt;D1</title>
<path fill="none" stroke="black" d="M332.69,-261.38C316.5,-243.74 289.91,-214.75 270.64,-193.75"/>
<polygon fill="black" stroke="black" points="272.99,-191.13 263.65,-186.13 267.83,-195.87 272.99,-191.13"/>
<text text-anchor="middle" x="321.51" y="-219.3" font-family="Times,serif" font-size="14.00">是</text>
</g>
<!-- D2 -->
<g id="node6" class="node">
<title>D2</title>
<polygon fill="lightgray" stroke="black" points="489.51,-186 344.51,-186 344.51,-148 489.51,-148 489.51,-186"/>
<text text-anchor="middle" x="417.01" y="-170.8" font-family="Times,serif" font-size="14.00">逐步注释或精简代码</text>
<text text-anchor="middle" x="417.01" y="-155.8" font-family="Times,serif" font-size="14.00">缩小问题范围</text>
</g>
<!-- C2&#45;&gt;D2 -->
<g id="edge5" class="edge">
<title>C2&#45;&gt;D2</title>
<path fill="none" stroke="black" d="M357.34,-260.92C368.47,-243.58 386.38,-215.7 399.68,-195"/>
<polygon fill="black" stroke="black" points="402.78,-196.64 405.24,-186.34 396.89,-192.86 402.78,-196.64"/>
<text text-anchor="middle" x="399.51" y="-219.3" font-family="Times,serif" font-size="14.00">否</text>
</g>
<!-- D1&#45;&gt;E -->
<g id="edge7" class="edge">
<title>D1&#45;&gt;E</title>
<path fill="none" stroke="black" d="M247.01,-147.96C247.01,-139.88 247.01,-130.18 247.01,-121.18"/>
<polygon fill="black" stroke="black" points="250.51,-121.09 247.01,-111.09 243.51,-121.09 250.51,-121.09"/>
</g>
<!-- D2&#45;&gt;E -->
<g id="edge8" class="edge">
<title>D2&#45;&gt;E</title>
<path fill="none" stroke="black" d="M374.99,-147.96C351.9,-138.04 323.07,-125.66 298.62,-115.16"/>
<polygon fill="black" stroke="black" points="299.71,-111.82 289.14,-111.09 296.95,-118.25 299.71,-111.82"/>
</g>
<!-- F -->
<g id="node8" class="node">
<title>F</title>
<polygon fill="palegreen" stroke="black" points="362.01,-36 132.01,-36 132.01,0 362.01,0 362.01,-36"/>
<text text-anchor="middle" x="247.01" y="-14.3" font-family="Times,serif" font-size="14.00">定位问题根因 → 修复 → 回归测试</text>
</g>
<!-- E&#45;&gt;F -->
<g id="edge9" class="edge">
<title>E&#45;&gt;F</title>
<path fill="none" stroke="black" d="M247.01,-72.83C247.01,-64.89 247.01,-55.41 247.01,-46.63"/>
<polygon fill="black" stroke="black" points="250.51,-46.42 247.01,-36.42 243.51,-46.42 250.51,-46.42"/>
</g>
</g>
</svg>
