<?xml version="1.0" encoding="UTF-8" standalone="no"?>
<!DOCTYPE svg PUBLIC "-//W3C//DTD SVG 1.1//EN"
 "http://www.w3.org/Graphics/SVG/1.1/DTD/svg11.dtd">
<!-- Generated by graphviz version 2.43.0 (0)
 -->
<!-- Title: %3 Pages: 1 -->
<svg width="704pt" height="57pt"
 viewBox="0.00 0.00 704.00 57.00" xmlns="http://www.w3.org/2000/svg" xmlns:xlink="http://www.w3.org/1999/xlink">
<g id="graph0" class="graph" transform="scale(1 1) rotate(0) translate(4 53)">
<title>%3</title>
<polygon fill="white" stroke="transparent" points="-4,4 -4,-53 700,-53 700,4 -4,4"/>
<!-- A -->
<g id="node1" class="node">
<title>A</title>
<polygon fill="lightgray" stroke="black" points="84,-38 0,-38 0,0 84,0 84,-38"/>
<text text-anchor="middle" x="42" y="-22.8" font-family="Times,serif" font-size="14.00">Fake it</text>
<text text-anchor="middle" x="42" y="-7.8" font-family="Times,serif" font-size="14.00">(先伪实现)</text>
</g>
<!-- B -->
<g id="node2" class="node">
<title>B</title>
<polygon fill="lightblue" stroke="black" points="418,-38 277,-38 277,0 418,0 418,-38"/>
<text text-anchor="middle" x="347.5" y="-22.8" font-family="Times,serif" font-size="14.00">Validate it</text>
<text text-anchor="middle" x="347.5" y="-7.8" font-family="Times,serif" font-size="14.00">(验证主流程可运行)</text>
</g>
<!-- A&#45;&gt;B -->
<g id="edge1" class="edge">
<title>A&#45;&gt;B</title>
<path fill="none" stroke="black" d="M84.25,-19C130.88,-19 207.92,-19 266.47,-19"/>
<polygon fill="black" stroke="black" points="266.8,-22.5 276.8,-19 266.8,-15.5 266.8,-22.5"/>
<text text-anchor="middle" x="180.5" y="-37.8" font-family="Times,serif" font-size="14.00">构建主流程</text>
<text text-anchor="middle" x="180.5" y="-22.8" font-family="Times,serif" font-size="14.00">Stub / Mock / 占位函数</text>
</g>
<!-- C -->
<g id="node3" class="node">
<title>C</title>
<polygon fill="lightgreen" stroke="black" points="696,-38 569,-38 569,0 696,0 696,-38"/>
<text text-anchor="middle" x="632.5" y="-22.8" font-family="Times,serif" font-size="14.00">Replace it</text>
<text text-anchor="middle" x="632.5" y="-7.8" font-family="Times,serif" font-size="14.00">(替换为真实实现)</text>
</g>
<!-- B&#45;&gt;C -->
<g id="edge2" class="edge">
<title>B&#45;&gt;C</title>
<path fill="none" stroke="black" d="M418.09,-19C460.82,-19 515.46,-19 558.75,-19"/>
<polygon fill="black" stroke="black" points="558.94,-22.5 568.94,-19 558.94,-15.5 558.94,-22.5"/>
<text text-anchor="middle" x="493.5" y="-37.8" font-family="Times,serif" font-size="14.00">确认主流程通畅后</text>
<text text-anchor="middle" x="493.5" y="-22.8" font-family="Times,serif" font-size="14.00">实现真实模块</text>
</g>
</g>
</svg>
