<?xml version="1.0" encoding="utf-8" standalone="no"?>
<!DOCTYPE svg PUBLIC "-//W3C//DTD SVG 1.1//EN"
  "http://www.w3.org/Graphics/SVG/1.1/DTD/svg11.dtd">
<svg xmlns:xlink="http://www.w3.org/1999/xlink" width="432pt" height="432pt" viewBox="0 0 432 432" xmlns="http://www.w3.org/2000/svg" version="1.1">
 <metadata>
  <rdf:RDF xmlns:dc="http://purl.org/dc/elements/1.1/" xmlns:cc="http://creativecommons.org/ns#" xmlns:rdf="http://www.w3.org/1999/02/22-rdf-syntax-ns#">
   <cc:Work>
    <dc:type rdf:resource="http://purl.org/dc/dcmitype/StillImage"/>
    <dc:date>2025-03-22T17:46:34.199611</dc:date>
    <dc:format>image/svg+xml</dc:format>
    <dc:creator>
     <cc:Agent>
      <dc:title>Matplotlib v3.6.3, https://matplotlib.org/</dc:title>
     </cc:Agent>
    </dc:creator>
   </cc:Work>
  </rdf:RDF>
 </metadata>
 <defs>
  <style type="text/css">*{stroke-linejoin: round; stroke-linecap: butt}</style>
 </defs>
 <g id="figure_1">
  <g id="patch_1">
   <path d="M 0 432 
L 432 432 
L 432 0 
L 0 0 
z
" style="fill: #ffffff"/>
  </g>
  <g id="axes_1">
   <g id="patch_2">
    <path d="M 54 334.584 
L 388.8 334.584 
L 388.8 268.056 
L 54 268.056 
z
" clip-path="url(#p456a676c85)" style="fill: #94c4df; stroke: #000000; stroke-linejoin: miter"/>
   </g>
   <g id="patch_3">
    <path d="M 54 251.424 
L 388.8 251.424 
L 388.8 184.896 
L 54 184.896 
z
" clip-path="url(#p456a676c85)" style="fill: #4a98c9; stroke: #000000; stroke-linejoin: miter"/>
   </g>
   <g id="patch_4">
    <path d="M 54 168.264 
L 388.8 168.264 
L 388.8 101.736 
L 54 101.736 
z
" clip-path="url(#p456a676c85)" style="fill: #1764ab; stroke: #000000; stroke-linejoin: miter"/>
   </g>
   <g id="text_1">
    <!-- Awareness -->
    <g style="fill: #ffffff" transform="translate(187.715078 298.153547) scale(0.11 -0.11)">
     <defs>
      <path id="DejaVuSans-Bold-41" d="M 3419 850 
L 1538 850 
L 1241 0 
L 31 0 
L 1759 4666 
L 3194 4666 
L 4922 0 
L 3713 0 
L 3419 850 
z
M 1838 1716 
L 3116 1716 
L 2478 3572 
L 1838 1716 
z
" transform="scale(0.015625)"/>
      <path id="DejaVuSans-Bold-77" d="M 225 3500 
L 1313 3500 
L 1900 1088 
L 2491 3500 
L 3425 3500 
L 4013 1113 
L 4603 3500 
L 5691 3500 
L 4769 0 
L 3547 0 
L 2956 2406 
L 2369 0 
L 1147 0 
L 225 3500 
z
" transform="scale(0.015625)"/>
      <path id="DejaVuSans-Bold-61" d="M 2106 1575 
Q 1756 1575 1579 1456 
Q 1403 1338 1403 1106 
Q 1403 894 1545 773 
Q 1688 653 1941 653 
Q 2256 653 2472 879 
Q 2688 1106 2688 1447 
L 2688 1575 
L 2106 1575 
z
M 3816 1997 
L 3816 0 
L 2688 0 
L 2688 519 
Q 2463 200 2181 54 
Q 1900 -91 1497 -91 
Q 953 -91 614 226 
Q 275 544 275 1050 
Q 275 1666 698 1953 
Q 1122 2241 2028 2241 
L 2688 2241 
L 2688 2328 
Q 2688 2594 2478 2717 
Q 2269 2841 1825 2841 
Q 1466 2841 1156 2769 
Q 847 2697 581 2553 
L 581 3406 
Q 941 3494 1303 3539 
Q 1666 3584 2028 3584 
Q 2975 3584 3395 3211 
Q 3816 2838 3816 1997 
z
" transform="scale(0.015625)"/>
      <path id="DejaVuSans-Bold-72" d="M 3138 2547 
Q 2991 2616 2845 2648 
Q 2700 2681 2553 2681 
Q 2122 2681 1889 2404 
Q 1656 2128 1656 1613 
L 1656 0 
L 538 0 
L 538 3500 
L 1656 3500 
L 1656 2925 
Q 1872 3269 2151 3426 
Q 2431 3584 2822 3584 
Q 2878 3584 2943 3579 
Q 3009 3575 3134 3559 
L 3138 2547 
z
" transform="scale(0.015625)"/>
      <path id="DejaVuSans-Bold-65" d="M 4031 1759 
L 4031 1441 
L 1416 1441 
Q 1456 1047 1700 850 
Q 1944 653 2381 653 
Q 2734 653 3104 758 
Q 3475 863 3866 1075 
L 3866 213 
Q 3469 63 3072 -14 
Q 2675 -91 2278 -91 
Q 1328 -91 801 392 
Q 275 875 275 1747 
Q 275 2603 792 3093 
Q 1309 3584 2216 3584 
Q 3041 3584 3536 3087 
Q 4031 2591 4031 1759 
z
M 2881 2131 
Q 2881 2450 2695 2645 
Q 2509 2841 2209 2841 
Q 1884 2841 1681 2658 
Q 1478 2475 1428 2131 
L 2881 2131 
z
" transform="scale(0.015625)"/>
      <path id="DejaVuSans-Bold-6e" d="M 4056 2131 
L 4056 0 
L 2931 0 
L 2931 347 
L 2931 1631 
Q 2931 2084 2911 2256 
Q 2891 2428 2841 2509 
Q 2775 2619 2662 2680 
Q 2550 2741 2406 2741 
Q 2056 2741 1856 2470 
Q 1656 2200 1656 1722 
L 1656 0 
L 538 0 
L 538 3500 
L 1656 3500 
L 1656 2988 
Q 1909 3294 2193 3439 
Q 2478 3584 2822 3584 
Q 3428 3584 3742 3212 
Q 4056 2841 4056 2131 
z
" transform="scale(0.015625)"/>
      <path id="DejaVuSans-Bold-73" d="M 3272 3391 
L 3272 2541 
Q 2913 2691 2578 2766 
Q 2244 2841 1947 2841 
Q 1628 2841 1473 2761 
Q 1319 2681 1319 2516 
Q 1319 2381 1436 2309 
Q 1553 2238 1856 2203 
L 2053 2175 
Q 2913 2066 3209 1816 
Q 3506 1566 3506 1031 
Q 3506 472 3093 190 
Q 2681 -91 1863 -91 
Q 1516 -91 1145 -36 
Q 775 19 384 128 
L 384 978 
Q 719 816 1070 734 
Q 1422 653 1784 653 
Q 2113 653 2278 743 
Q 2444 834 2444 1013 
Q 2444 1163 2330 1236 
Q 2216 1309 1875 1350 
L 1678 1375 
Q 931 1469 631 1722 
Q 331 1975 331 2491 
Q 331 3047 712 3315 
Q 1094 3584 1881 3584 
Q 2191 3584 2531 3537 
Q 2872 3491 3272 3391 
z
" transform="scale(0.015625)"/>
     </defs>
     <use xlink:href="#DejaVuSans-Bold-41"/>
     <use xlink:href="#DejaVuSans-Bold-77" x="77.392578"/>
     <use xlink:href="#DejaVuSans-Bold-61" x="169.775391"/>
     <use xlink:href="#DejaVuSans-Bold-72" x="237.255859"/>
     <use xlink:href="#DejaVuSans-Bold-65" x="286.572266"/>
     <use xlink:href="#DejaVuSans-Bold-6e" x="354.394531"/>
     <use xlink:href="#DejaVuSans-Bold-65" x="425.585938"/>
     <use xlink:href="#DejaVuSans-Bold-73" x="493.408203"/>
     <use xlink:href="#DejaVuSans-Bold-73" x="552.929688"/>
    </g>
    <!-- (keywords, rough idea) -->
    <g style="fill: #ffffff" transform="translate(149.319922 310.471141) scale(0.11 -0.11)">
     <defs>
      <path id="DejaVuSans-Bold-28" d="M 2413 -844 
L 1484 -844 
Q 1006 -72 778 623 
Q 550 1319 550 2003 
Q 550 2688 779 3389 
Q 1009 4091 1484 4856 
L 2413 4856 
Q 2013 4116 1813 3408 
Q 1613 2700 1613 2009 
Q 1613 1319 1811 609 
Q 2009 -100 2413 -844 
z
" transform="scale(0.015625)"/>
      <path id="DejaVuSans-Bold-6b" d="M 538 4863 
L 1656 4863 
L 1656 2216 
L 2944 3500 
L 4244 3500 
L 2534 1894 
L 4378 0 
L 3022 0 
L 1656 1459 
L 1656 0 
L 538 0 
L 538 4863 
z
" transform="scale(0.015625)"/>
      <path id="DejaVuSans-Bold-79" d="M 78 3500 
L 1197 3500 
L 2138 1125 
L 2938 3500 
L 4056 3500 
L 2584 -331 
Q 2363 -916 2067 -1148 
Q 1772 -1381 1288 -1381 
L 641 -1381 
L 641 -647 
L 991 -647 
Q 1275 -647 1404 -556 
Q 1534 -466 1606 -231 
L 1638 -134 
L 78 3500 
z
" transform="scale(0.015625)"/>
      <path id="DejaVuSans-Bold-6f" d="M 2203 2784 
Q 1831 2784 1636 2517 
Q 1441 2250 1441 1747 
Q 1441 1244 1636 976 
Q 1831 709 2203 709 
Q 2569 709 2762 976 
Q 2956 1244 2956 1747 
Q 2956 2250 2762 2517 
Q 2569 2784 2203 2784 
z
M 2203 3584 
Q 3106 3584 3614 3096 
Q 4122 2609 4122 1747 
Q 4122 884 3614 396 
Q 3106 -91 2203 -91 
Q 1297 -91 786 396 
Q 275 884 275 1747 
Q 275 2609 786 3096 
Q 1297 3584 2203 3584 
z
" transform="scale(0.015625)"/>
      <path id="DejaVuSans-Bold-64" d="M 2919 2988 
L 2919 4863 
L 4044 4863 
L 4044 0 
L 2919 0 
L 2919 506 
Q 2688 197 2409 53 
Q 2131 -91 1766 -91 
Q 1119 -91 703 423 
Q 288 938 288 1747 
Q 288 2556 703 3070 
Q 1119 3584 1766 3584 
Q 2128 3584 2408 3439 
Q 2688 3294 2919 2988 
z
M 2181 722 
Q 2541 722 2730 984 
Q 2919 1247 2919 1747 
Q 2919 2247 2730 2509 
Q 2541 2772 2181 2772 
Q 1825 2772 1636 2509 
Q 1447 2247 1447 1747 
Q 1447 1247 1636 984 
Q 1825 722 2181 722 
z
" transform="scale(0.015625)"/>
      <path id="DejaVuSans-Bold-2c" d="M 653 1209 
L 1778 1209 
L 1778 256 
L 1006 -909 
L 341 -909 
L 653 256 
L 653 1209 
z
" transform="scale(0.015625)"/>
      <path id="DejaVuSans-Bold-20" transform="scale(0.015625)"/>
      <path id="DejaVuSans-Bold-75" d="M 500 1363 
L 500 3500 
L 1625 3500 
L 1625 3150 
Q 1625 2866 1622 2436 
Q 1619 2006 1619 1863 
Q 1619 1441 1641 1255 
Q 1663 1069 1716 984 
Q 1784 875 1895 815 
Q 2006 756 2150 756 
Q 2500 756 2700 1025 
Q 2900 1294 2900 1772 
L 2900 3500 
L 4019 3500 
L 4019 0 
L 2900 0 
L 2900 506 
Q 2647 200 2364 54 
Q 2081 -91 1741 -91 
Q 1134 -91 817 281 
Q 500 653 500 1363 
z
" transform="scale(0.015625)"/>
      <path id="DejaVuSans-Bold-67" d="M 2919 594 
Q 2688 288 2409 144 
Q 2131 0 1766 0 
Q 1125 0 706 504 
Q 288 1009 288 1791 
Q 288 2575 706 3076 
Q 1125 3578 1766 3578 
Q 2131 3578 2409 3434 
Q 2688 3291 2919 2981 
L 2919 3500 
L 4044 3500 
L 4044 353 
Q 4044 -491 3511 -936 
Q 2978 -1381 1966 -1381 
Q 1638 -1381 1331 -1331 
Q 1025 -1281 716 -1178 
L 716 -306 
Q 1009 -475 1290 -558 
Q 1572 -641 1856 -641 
Q 2406 -641 2662 -400 
Q 2919 -159 2919 353 
L 2919 594 
z
M 2181 2772 
Q 1834 2772 1640 2515 
Q 1447 2259 1447 1791 
Q 1447 1309 1634 1061 
Q 1822 813 2181 813 
Q 2531 813 2725 1069 
Q 2919 1325 2919 1791 
Q 2919 2259 2725 2515 
Q 2531 2772 2181 2772 
z
" transform="scale(0.015625)"/>
      <path id="DejaVuSans-Bold-68" d="M 4056 2131 
L 4056 0 
L 2931 0 
L 2931 347 
L 2931 1625 
Q 2931 2084 2911 2256 
Q 2891 2428 2841 2509 
Q 2775 2619 2662 2680 
Q 2550 2741 2406 2741 
Q 2056 2741 1856 2470 
Q 1656 2200 1656 1722 
L 1656 0 
L 538 0 
L 538 4863 
L 1656 4863 
L 1656 2988 
Q 1909 3294 2193 3439 
Q 2478 3584 2822 3584 
Q 3428 3584 3742 3212 
Q 4056 2841 4056 2131 
z
" transform="scale(0.015625)"/>
      <path id="DejaVuSans-Bold-69" d="M 538 3500 
L 1656 3500 
L 1656 0 
L 538 0 
L 538 3500 
z
M 538 4863 
L 1656 4863 
L 1656 3950 
L 538 3950 
L 538 4863 
z
" transform="scale(0.015625)"/>
      <path id="DejaVuSans-Bold-29" d="M 513 -844 
Q 913 -100 1113 609 
Q 1313 1319 1313 2009 
Q 1313 2700 1113 3408 
Q 913 4116 513 4856 
L 1441 4856 
Q 1916 4091 2145 3389 
Q 2375 2688 2375 2003 
Q 2375 1319 2147 623 
Q 1919 -72 1441 -844 
L 513 -844 
z
" transform="scale(0.015625)"/>
     </defs>
     <use xlink:href="#DejaVuSans-Bold-28"/>
     <use xlink:href="#DejaVuSans-Bold-6b" x="45.703125"/>
     <use xlink:href="#DejaVuSans-Bold-65" x="109.582031"/>
     <use xlink:href="#DejaVuSans-Bold-79" x="177.404297"/>
     <use xlink:href="#DejaVuSans-Bold-77" x="242.589844"/>
     <use xlink:href="#DejaVuSans-Bold-6f" x="334.972656"/>
     <use xlink:href="#DejaVuSans-Bold-72" x="403.673828"/>
     <use xlink:href="#DejaVuSans-Bold-64" x="452.990234"/>
     <use xlink:href="#DejaVuSans-Bold-73" x="524.572266"/>
     <use xlink:href="#DejaVuSans-Bold-2c" x="584.09375"/>
     <use xlink:href="#DejaVuSans-Bold-20" x="622.082031"/>
     <use xlink:href="#DejaVuSans-Bold-72" x="656.896484"/>
     <use xlink:href="#DejaVuSans-Bold-6f" x="706.212891"/>
     <use xlink:href="#DejaVuSans-Bold-75" x="774.914062"/>
     <use xlink:href="#DejaVuSans-Bold-67" x="846.105469"/>
     <use xlink:href="#DejaVuSans-Bold-68" x="917.6875"/>
     <use xlink:href="#DejaVuSans-Bold-20" x="988.878906"/>
     <use xlink:href="#DejaVuSans-Bold-69" x="1023.693359"/>
     <use xlink:href="#DejaVuSans-Bold-64" x="1057.970703"/>
     <use xlink:href="#DejaVuSans-Bold-65" x="1129.552734"/>
     <use xlink:href="#DejaVuSans-Bold-61" x="1197.375"/>
     <use xlink:href="#DejaVuSans-Bold-29" x="1264.855469"/>
    </g>
   </g>
   <g id="text_2">
    <!-- Application -->
    <g style="fill: #ffffff" transform="translate(186.318594 214.993547) scale(0.11 -0.11)">
     <defs>
      <path id="DejaVuSans-Bold-70" d="M 1656 506 
L 1656 -1331 
L 538 -1331 
L 538 3500 
L 1656 3500 
L 1656 2988 
Q 1888 3294 2169 3439 
Q 2450 3584 2816 3584 
Q 3463 3584 3878 3070 
Q 4294 2556 4294 1747 
Q 4294 938 3878 423 
Q 3463 -91 2816 -91 
Q 2450 -91 2169 54 
Q 1888 200 1656 506 
z
M 2400 2772 
Q 2041 2772 1848 2508 
Q 1656 2244 1656 1747 
Q 1656 1250 1848 986 
Q 2041 722 2400 722 
Q 2759 722 2948 984 
Q 3138 1247 3138 1747 
Q 3138 2247 2948 2509 
Q 2759 2772 2400 2772 
z
" transform="scale(0.015625)"/>
      <path id="DejaVuSans-Bold-6c" d="M 538 4863 
L 1656 4863 
L 1656 0 
L 538 0 
L 538 4863 
z
" transform="scale(0.015625)"/>
      <path id="DejaVuSans-Bold-63" d="M 3366 3391 
L 3366 2478 
Q 3138 2634 2908 2709 
Q 2678 2784 2431 2784 
Q 1963 2784 1702 2511 
Q 1441 2238 1441 1747 
Q 1441 1256 1702 982 
Q 1963 709 2431 709 
Q 2694 709 2930 787 
Q 3166 866 3366 1019 
L 3366 103 
Q 3103 6 2833 -42 
Q 2563 -91 2291 -91 
Q 1344 -91 809 395 
Q 275 881 275 1747 
Q 275 2613 809 3098 
Q 1344 3584 2291 3584 
Q 2566 3584 2833 3536 
Q 3100 3488 3366 3391 
z
" transform="scale(0.015625)"/>
      <path id="DejaVuSans-Bold-74" d="M 1759 4494 
L 1759 3500 
L 2913 3500 
L 2913 2700 
L 1759 2700 
L 1759 1216 
Q 1759 972 1856 886 
Q 1953 800 2241 800 
L 2816 800 
L 2816 0 
L 1856 0 
Q 1194 0 917 276 
Q 641 553 641 1216 
L 641 2700 
L 84 2700 
L 84 3500 
L 641 3500 
L 641 4494 
L 1759 4494 
z
" transform="scale(0.015625)"/>
     </defs>
     <use xlink:href="#DejaVuSans-Bold-41"/>
     <use xlink:href="#DejaVuSans-Bold-70" x="77.392578"/>
     <use xlink:href="#DejaVuSans-Bold-70" x="148.974609"/>
     <use xlink:href="#DejaVuSans-Bold-6c" x="220.556641"/>
     <use xlink:href="#DejaVuSans-Bold-69" x="254.833984"/>
     <use xlink:href="#DejaVuSans-Bold-63" x="289.111328"/>
     <use xlink:href="#DejaVuSans-Bold-61" x="348.388672"/>
     <use xlink:href="#DejaVuSans-Bold-74" x="415.869141"/>
     <use xlink:href="#DejaVuSans-Bold-69" x="463.671875"/>
     <use xlink:href="#DejaVuSans-Bold-6f" x="497.949219"/>
     <use xlink:href="#DejaVuSans-Bold-6e" x="566.650391"/>
    </g>
    <!-- (project-based use) -->
    <g style="fill: #ffffff" transform="translate(160.734141 227.311141) scale(0.11 -0.11)">
     <defs>
      <path id="DejaVuSans-Bold-6a" d="M 538 3500 
L 1656 3500 
L 1656 63 
Q 1656 -641 1318 -1011 
Q 981 -1381 341 -1381 
L -213 -1381 
L -213 -647 
L -19 -647 
Q 300 -647 419 -503 
Q 538 -359 538 63 
L 538 3500 
z
M 538 4863 
L 1656 4863 
L 1656 3950 
L 538 3950 
L 538 4863 
z
" transform="scale(0.015625)"/>
      <path id="DejaVuSans-Bold-2d" d="M 347 2297 
L 2309 2297 
L 2309 1388 
L 347 1388 
L 347 2297 
z
" transform="scale(0.015625)"/>
      <path id="DejaVuSans-Bold-62" d="M 2400 722 
Q 2759 722 2948 984 
Q 3138 1247 3138 1747 
Q 3138 2247 2948 2509 
Q 2759 2772 2400 2772 
Q 2041 2772 1848 2508 
Q 1656 2244 1656 1747 
Q 1656 1250 1848 986 
Q 2041 722 2400 722 
z
M 1656 2988 
Q 1888 3294 2169 3439 
Q 2450 3584 2816 3584 
Q 3463 3584 3878 3070 
Q 4294 2556 4294 1747 
Q 4294 938 3878 423 
Q 3463 -91 2816 -91 
Q 2450 -91 2169 54 
Q 1888 200 1656 506 
L 1656 0 
L 538 0 
L 538 4863 
L 1656 4863 
L 1656 2988 
z
" transform="scale(0.015625)"/>
     </defs>
     <use xlink:href="#DejaVuSans-Bold-28"/>
     <use xlink:href="#DejaVuSans-Bold-70" x="45.703125"/>
     <use xlink:href="#DejaVuSans-Bold-72" x="117.285156"/>
     <use xlink:href="#DejaVuSans-Bold-6f" x="166.601562"/>
     <use xlink:href="#DejaVuSans-Bold-6a" x="235.302734"/>
     <use xlink:href="#DejaVuSans-Bold-65" x="269.580078"/>
     <use xlink:href="#DejaVuSans-Bold-63" x="337.402344"/>
     <use xlink:href="#DejaVuSans-Bold-74" x="396.679688"/>
     <use xlink:href="#DejaVuSans-Bold-2d" x="444.482422"/>
     <use xlink:href="#DejaVuSans-Bold-62" x="485.986328"/>
     <use xlink:href="#DejaVuSans-Bold-61" x="557.568359"/>
     <use xlink:href="#DejaVuSans-Bold-73" x="625.048828"/>
     <use xlink:href="#DejaVuSans-Bold-65" x="684.570312"/>
     <use xlink:href="#DejaVuSans-Bold-64" x="752.392578"/>
     <use xlink:href="#DejaVuSans-Bold-20" x="823.974609"/>
     <use xlink:href="#DejaVuSans-Bold-75" x="858.789062"/>
     <use xlink:href="#DejaVuSans-Bold-73" x="929.980469"/>
     <use xlink:href="#DejaVuSans-Bold-65" x="989.501953"/>
     <use xlink:href="#DejaVuSans-Bold-29" x="1057.324219"/>
    </g>
   </g>
   <g id="text_3">
    <!-- Design &amp; Evaluation -->
    <g style="fill: #ffffff" transform="translate(158.692266 131.790578) scale(0.11 -0.11)">
     <defs>
      <path id="DejaVuSans-Bold-44" d="M 1791 3756 
L 1791 909 
L 2222 909 
Q 2959 909 3348 1275 
Q 3738 1641 3738 2338 
Q 3738 3031 3350 3393 
Q 2963 3756 2222 3756 
L 1791 3756 
z
M 588 4666 
L 1856 4666 
Q 2919 4666 3439 4514 
Q 3959 4363 4331 4000 
Q 4659 3684 4818 3271 
Q 4978 2859 4978 2338 
Q 4978 1809 4818 1395 
Q 4659 981 4331 666 
Q 3956 303 3431 151 
Q 2906 0 1856 0 
L 588 0 
L 588 4666 
z
" transform="scale(0.015625)"/>
      <path id="DejaVuSans-Bold-26" d="M 2497 3097 
L 3775 1691 
Q 3941 1909 4027 2181 
Q 4113 2453 4128 2797 
L 5100 2797 
Q 5053 2228 4879 1784 
Q 4706 1341 4397 1006 
L 5313 0 
L 3988 0 
L 3681 341 
Q 3353 122 2990 15 
Q 2628 -91 2222 -91 
Q 1400 -91 892 342 
Q 384 775 384 1459 
Q 384 1916 607 2267 
Q 831 2619 1338 2950 
Q 1206 3116 1143 3281 
Q 1081 3447 1081 3628 
Q 1081 4138 1478 4444 
Q 1875 4750 2534 4750 
Q 2819 4750 3126 4704 
Q 3434 4659 3769 4569 
L 3769 3700 
Q 3475 3850 3212 3922 
Q 2950 3994 2700 3994 
Q 2459 3994 2326 3901 
Q 2194 3809 2194 3641 
Q 2194 3534 2270 3398 
Q 2347 3263 2497 3097 
z
M 1875 2322 
Q 1672 2175 1569 1989 
Q 1466 1803 1466 1581 
Q 1466 1222 1731 969 
Q 1997 716 2369 716 
Q 2578 716 2759 780 
Q 2941 844 3097 972 
L 1875 2322 
z
" transform="scale(0.015625)"/>
      <path id="DejaVuSans-Bold-45" d="M 588 4666 
L 3834 4666 
L 3834 3756 
L 1791 3756 
L 1791 2888 
L 3713 2888 
L 3713 1978 
L 1791 1978 
L 1791 909 
L 3903 909 
L 3903 0 
L 588 0 
L 588 4666 
z
" transform="scale(0.015625)"/>
      <path id="DejaVuSans-Bold-76" d="M 97 3500 
L 1216 3500 
L 2088 1081 
L 2956 3500 
L 4078 3500 
L 2700 0 
L 1472 0 
L 97 3500 
z
" transform="scale(0.015625)"/>
     </defs>
     <use xlink:href="#DejaVuSans-Bold-44"/>
     <use xlink:href="#DejaVuSans-Bold-65" x="83.007812"/>
     <use xlink:href="#DejaVuSans-Bold-73" x="150.830078"/>
     <use xlink:href="#DejaVuSans-Bold-69" x="210.351562"/>
     <use xlink:href="#DejaVuSans-Bold-67" x="244.628906"/>
     <use xlink:href="#DejaVuSans-Bold-6e" x="316.210938"/>
     <use xlink:href="#DejaVuSans-Bold-20" x="387.402344"/>
     <use xlink:href="#DejaVuSans-Bold-26" x="422.216797"/>
     <use xlink:href="#DejaVuSans-Bold-20" x="509.423828"/>
     <use xlink:href="#DejaVuSans-Bold-45" x="544.238281"/>
     <use xlink:href="#DejaVuSans-Bold-76" x="612.548828"/>
     <use xlink:href="#DejaVuSans-Bold-61" x="677.734375"/>
     <use xlink:href="#DejaVuSans-Bold-6c" x="745.214844"/>
     <use xlink:href="#DejaVuSans-Bold-75" x="779.492188"/>
     <use xlink:href="#DejaVuSans-Bold-61" x="850.683594"/>
     <use xlink:href="#DejaVuSans-Bold-74" x="918.164062"/>
     <use xlink:href="#DejaVuSans-Bold-69" x="965.966797"/>
     <use xlink:href="#DejaVuSans-Bold-6f" x="1000.244141"/>
     <use xlink:href="#DejaVuSans-Bold-6e" x="1068.945312"/>
    </g>
    <!-- (solution-level thinking) -->
    <g style="fill: #ffffff" transform="translate(146.557031 144.194109) scale(0.11 -0.11)">
     <use xlink:href="#DejaVuSans-Bold-28"/>
     <use xlink:href="#DejaVuSans-Bold-73" x="45.703125"/>
     <use xlink:href="#DejaVuSans-Bold-6f" x="105.224609"/>
     <use xlink:href="#DejaVuSans-Bold-6c" x="173.925781"/>
     <use xlink:href="#DejaVuSans-Bold-75" x="208.203125"/>
     <use xlink:href="#DejaVuSans-Bold-74" x="279.394531"/>
     <use xlink:href="#DejaVuSans-Bold-69" x="327.197266"/>
     <use xlink:href="#DejaVuSans-Bold-6f" x="361.474609"/>
     <use xlink:href="#DejaVuSans-Bold-6e" x="430.175781"/>
     <use xlink:href="#DejaVuSans-Bold-2d" x="501.367188"/>
     <use xlink:href="#DejaVuSans-Bold-6c" x="542.871094"/>
     <use xlink:href="#DejaVuSans-Bold-65" x="577.148438"/>
     <use xlink:href="#DejaVuSans-Bold-76" x="644.970703"/>
     <use xlink:href="#DejaVuSans-Bold-65" x="710.15625"/>
     <use xlink:href="#DejaVuSans-Bold-6c" x="777.978516"/>
     <use xlink:href="#DejaVuSans-Bold-20" x="812.255859"/>
     <use xlink:href="#DejaVuSans-Bold-74" x="847.070312"/>
     <use xlink:href="#DejaVuSans-Bold-68" x="894.873047"/>
     <use xlink:href="#DejaVuSans-Bold-69" x="966.064453"/>
     <use xlink:href="#DejaVuSans-Bold-6e" x="1000.341797"/>
     <use xlink:href="#DejaVuSans-Bold-6b" x="1071.533203"/>
     <use xlink:href="#DejaVuSans-Bold-69" x="1138.037109"/>
     <use xlink:href="#DejaVuSans-Bold-6e" x="1172.314453"/>
     <use xlink:href="#DejaVuSans-Bold-67" x="1243.505859"/>
     <use xlink:href="#DejaVuSans-Bold-29" x="1315.087891"/>
    </g>
   </g>
  </g>
 </g>
 <defs>
  <clipPath id="p456a676c85">
   <rect x="54" y="51.84" width="334.8" height="332.64"/>
  </clipPath>
 </defs>
</svg>
